<svg width="30" height="30" viewBox="0 0 30 30" fill="none" xmlns="http://www.w3.org/2000/svg">
<g id="Group">
<path id="Path" fill-rule="evenodd" clip-rule="evenodd" d="M15 20.0015C15 17.2389 17.2395 14.9994 20.0021 14.9994C17.2395 14.9994 15 12.7599 15 9.99731C15 12.7599 12.7605 14.9994 9.99792 14.9994C12.7605 14.9994 15 17.2389 15 20.0015Z" stroke="#3856DD" stroke-width="1.6" stroke-linecap="round" stroke-linejoin="round"/>
<path id="Path_2" d="M26.2549 14.9996C26.2549 21.2154 21.216 26.2542 15.0002 26.2542C8.78438 26.2542 3.74548 21.2154 3.74548 14.9996C3.74548 8.78377 8.78438 3.74487 15.0002 3.74487" stroke="#071A34" stroke-width="1.6" stroke-linecap="round" stroke-linejoin="round"/>
<path id="Path_3" fill-rule="evenodd" clip-rule="evenodd" d="M23.7538 9.998C23.7538 7.92607 25.4334 6.24644 27.5053 6.24644C25.4334 6.24644 23.7538 4.5668 23.7538 2.49487C23.7538 4.5668 22.0741 6.24644 20.0022 6.24644C22.0741 6.24644 23.7538 7.92607 23.7538 9.998Z" stroke="#3856DD" stroke-width="1.6" stroke-linecap="round" stroke-linejoin="round"/>
</g>
</svg>
