<svg width="24" height="24" viewBox="0 0 24 24" fill="none" xmlns="http://www.w3.org/2000/svg">
<g id="Group">
<path id="Path" fill-rule="evenodd" clip-rule="evenodd" d="M2.99624 16.0015H21.0037C21.5563 16.0015 22.0042 16.4494 22.0042 17.0019V18.0024C22.0042 19.1074 21.1083 20.0032 20.0033 20.0032H3.99665C2.89162 20.0032 1.99582 19.1074 1.99582 18.0024V17.0019C1.99582 16.4494 2.44372 16.0015 2.99624 16.0015Z" stroke="#2894D1" stroke-width="1.5" stroke-linecap="round" stroke-linejoin="round"/>
<path id="Path_2" fill-rule="evenodd" clip-rule="evenodd" d="M12 9.99902H3.1074C2.52478 10.028 2.02812 9.58105 1.99582 8.9986C1.99582 5.68353 6.47482 2.9961 12 2.9961C17.5251 2.9961 22.0042 5.68353 22.0042 8.9986C21.9719 9.58105 21.4752 10.028 20.8926 9.99902H12Z" stroke="#2894D1" stroke-width="1.5" stroke-linecap="round" stroke-linejoin="round"/>
<path id="Path_3" d="M2.49603 13.0003C3.71386 12.5001 5.07978 12.5001 6.29762 13.0003C7.51545 13.5005 8.88137 13.5005 10.0992 13.0003C11.317 12.5001 12.683 12.5001 13.9008 13.0003C15.1186 13.5005 16.4845 13.5005 17.7024 13.0003C18.9202 12.5001 20.2861 12.5001 21.504 13.0003" stroke="#2894D1" stroke-width="1.5" stroke-linecap="round" stroke-linejoin="round"/>
</g>
</svg>
