<svg width="27" height="27" viewBox="0 0 27 27" fill="none" xmlns="http://www.w3.org/2000/svg">
    <g id="Discovery">
        <path id="Fill 1" fill-rule="evenodd" clip-rule="evenodd"
            d="M12.0132 12.0145L10.7044 16.1982L14.8869 14.8882L16.1969 10.7045L12.0132 12.0145ZM9.27462 18.5644C9.02962 18.5644 8.78962 18.4682 8.61087 18.2906C8.36462 18.0431 8.27462 17.6794 8.37962 17.3482L10.3709 10.9869C10.4621 10.6919 10.6921 10.4631 10.9846 10.3719L17.3459 8.38065C17.6796 8.2744 18.0421 8.36565 18.2896 8.6119C18.5359 8.8594 18.6259 9.22315 18.5209 9.5544L16.5309 15.9157C16.4396 16.2094 16.2084 16.4394 15.9159 16.5307L9.55462 18.5219C9.46212 18.5507 9.36712 18.5644 9.27462 18.5644Z"
            fill="#071A34" />
        <g id="Group 5">
            <mask id="mask0_6002_112" style="mask-type:luminance" maskUnits="userSpaceOnUse" x="0"
                y="0" width="27" height="27">
                <path id="Clip 4" fill-rule="evenodd" clip-rule="evenodd"
                    d="M0.499512 0.5H26.4018V26.4021H0.499512V0.5Z" fill="white" />
            </mask>
            <g mask="url(#mask0_6002_112)">
                <path id="Fill 3" fill-rule="evenodd" clip-rule="evenodd"
                    d="M13.4508 2.375C7.34326 2.375 2.37451 7.345 2.37451 13.4513C2.37451 19.5588 7.34326 24.5275 13.4508 24.5275C19.5583 24.5275 24.527 19.5588 24.527 13.4513C24.527 7.345 19.5583 2.375 13.4508 2.375ZM13.4508 26.4025C6.30951 26.4025 0.499512 20.5925 0.499512 13.4513C0.499512 6.31 6.30951 0.5 13.4508 0.5C20.592 0.5 26.402 6.31 26.402 13.4513C26.402 20.5925 20.592 26.4025 13.4508 26.4025Z"
                    fill="#071A34" />
            </g>
        </g>
    </g>
</svg>
