<svg width="26" height="26" viewBox="0 0 26 26" fill="none" xmlns="http://www.w3.org/2000/svg">
    <g id="Discovery">
        <path id="Discovery_2" fill-rule="evenodd" clip-rule="evenodd"
            d="M0.499512 13C0.499512 6.1 6.08701 0.5 12.9995 0.5C19.8995 0.5 25.4995 6.1 25.4995 13C25.4995 19.9125 19.8995 25.5 12.9995 25.5C6.08701 25.5 0.499512 19.9125 0.499512 13ZM10.8923 15.1042L14.0631 14.1094L15.0767 10.9061L11.8912 11.9016L10.8923 15.1042ZM15.8475 8.56987L15.8124 8.58085L10.7133 10.1743C10.4508 10.2618 10.2383 10.4618 10.1633 10.7243L8.57006 15.8327L8.55907 15.8679L8.40282 16.3689L8.39575 16.3916L8.16332 17.1368C8.02582 17.5618 8.43832 17.9743 8.86332 17.8368L9.6064 17.6037L9.63325 17.5953L10.1324 17.4387L10.1676 17.4276L15.2383 15.8368C15.5008 15.7618 15.7133 15.5493 15.7883 15.2868L17.4046 10.1787L17.4152 10.1451L17.5732 9.64582L17.5745 9.64165L17.8133 8.88681C17.9508 8.44931 17.5508 8.03681 17.1133 8.17431L16.3326 8.41829L16.3276 8.41986L15.8475 8.56987Z"
            fill="#3856DD" />
    </g>
</svg>
