<svg width="24" height="24" viewBox="0 0 24 24" fill="none" xmlns="http://www.w3.org/2000/svg">
    <g id="Health, Medicine/Hand, Arm, Heart">
        <g id="Group">
            <g id="Group_2">
                <path id="Path" fill-rule="evenodd" clip-rule="evenodd"
                    d="M5.984 20.9997H4C3.448 20.9997 3 20.5517 3 19.9997V13.9997C3 13.4477 3.448 12.9997 4 12.9997H5.984C6.536 12.9997 6.984 13.4477 6.984 13.9997V19.9997C6.984 20.5517 6.536 20.9997 5.984 20.9997Z"
                    stroke="#8873FF" stroke-width="1.5" stroke-linecap="round"
                    stroke-linejoin="round" />
                <path id="Path_2"
                    d="M12.96 16.9997H15.284C15.715 16.9997 16.134 16.8597 16.479 16.5997L18.885 14.7877C19.486 14.3357 20.326 14.3957 20.857 14.9287V14.9287C21.446 15.5207 21.446 16.4797 20.857 17.0707L18.793 19.1437C18.237 19.7017 17.529 20.0827 16.757 20.2377L13.838 20.8237C13.26 20.9397 12.663 20.9257 12.09 20.7817L9.45101 20.1197C9.13601 20.0397 8.81101 19.9997 8.48501 19.9997H6.98401"
                    stroke="#8873FF" stroke-width="1.5" stroke-linecap="round"
                    stroke-linejoin="round" />
                <path id="Path_3"
                    d="M12.96 16.9997H14.439C15.272 16.9997 15.948 16.3217 15.948 15.4847V15.1817C15.948 14.4867 15.477 13.8807 14.805 13.7127L12.522 13.1397C12.151 13.0467 11.77 12.9997 11.388 12.9997V12.9997C10.465 12.9997 9.56201 13.2737 8.79401 13.7887L6.98401 14.9997"
                    stroke="#8873FF" stroke-width="1.5" stroke-linecap="round"
                    stroke-linejoin="round" />
                <path id="Path_4" fill-rule="evenodd" clip-rule="evenodd"
                    d="M15.2859 3.66042L14.9369 4.03342L14.5869 3.66042C13.8199 2.84242 12.5479 2.77542 11.6999 3.50742V3.50742C10.8329 4.25542 10.7299 5.55242 11.4429 6.45042C12.4629 7.73442 13.6319 9.00242 14.9369 9.99942C16.2749 8.97742 17.4689 7.67142 18.5069 6.35442C19.1809 5.49942 19.0419 4.25842 18.2199 3.54742L18.1819 3.51442C17.3259 2.77542 16.0529 2.84242 15.2859 3.66042V3.66042Z"
                    stroke="#8873FF" stroke-width="1.5" stroke-linecap="round"
                    stroke-linejoin="round" />
            </g>
        </g>
    </g>
</svg>
