<svg width="30" height="30" viewBox="0 0 30 30" fill="none" xmlns="http://www.w3.org/2000/svg">
<g id="Iconly/Curved/Light/Home">
<g id="Home">
<path id="Stroke 2" d="M4.00098 17.1413C4.00098 13.5838 4.21265 12.2167 4.76876 11.2463C5.04612 10.7623 5.43949 10.3272 6.06971 9.74546C6.34185 9.49426 6.64483 9.22745 6.99353 8.92039C7.04928 8.87131 7.10619 8.82119 7.16433 8.76995C7.57561 8.40744 8.03858 7.99695 8.55421 7.51936C8.88818 7.24968 9.22925 6.95916 9.58135 6.65922C10.2615 6.07988 10.9828 5.46545 11.7738 4.89833C12.9875 4.02816 14.0733 3.5 14.9485 3.5C15.8269 3.5 16.9279 4.02834 18.1579 4.89723C18.9849 5.48146 19.7498 6.12658 20.4626 6.72789C20.7904 7.00435 21.1072 7.27156 21.4139 7.51932C21.9296 7.99691 22.3925 8.40741 22.8038 8.76992C22.8615 8.8208 22.918 8.87056 22.9734 8.91932C23.3225 9.2268 23.6258 9.49393 23.8982 9.7454C24.5283 10.3271 24.9215 10.7622 25.1987 11.2461C25.7546 12.2165 25.966 13.5837 25.966 17.1413C25.966 19.71 25.8121 21.5486 25.4665 22.8784C25.1278 24.182 24.6254 24.92 23.9668 25.3928C23.2762 25.8885 22.2845 26.1879 20.7753 26.3434C19.2677 26.4988 17.3859 26.5 14.9835 26.5C12.5811 26.5 10.6993 26.4988 9.19169 26.3434C7.6825 26.1879 6.69078 25.8885 6.0002 25.3928C5.34152 24.92 4.83917 24.182 4.50041 22.8784C4.15486 21.5486 4.00098 19.71 4.00098 17.1413Z" stroke="#071A34" stroke-width="2" stroke-linecap="round" stroke-linejoin="round"/>
<path id="Stroke 1" d="M11.3477 20.168V20.168C13.7029 20.978 16.2612 20.978 18.6164 20.168V20.168" stroke="#071A34" stroke-width="2" stroke-linecap="round" stroke-linejoin="round"/>
</g>
</g>
</svg>
