<svg width="26" height="25" viewBox="0 0 26 25" fill="none" xmlns="http://www.w3.org/2000/svg">
    <g id="coin-bundle">
        <path id="Subtract" fill-rule="evenodd" clip-rule="evenodd"
            d="M0.5 2.71711C0.500442 2.21952 0.945766 1.55501 2.21091 0.959597C3.43271 0.384577 5.19473 0 7.20011 0C9.20549 0 10.9675 0.384577 12.1893 0.959597C13.4551 1.55531 13.9002 2.22018 13.9002 2.71785C13.9002 3.21552 13.4551 3.88039 12.1893 4.4761C10.9675 5.05112 9.20549 5.4357 7.20011 5.4357C5.19473 5.4357 3.43271 5.05112 2.21091 4.4761C0.945137 3.88039 0.5 3.21477 0.5 2.71711ZM13.9002 5.77371V8.99359C13.8999 9.4912 13.4547 10.1563 12.1893 10.7518C11.9508 10.8641 11.6153 10.9691 11.2298 11.0653C8.59564 11.7232 5.80458 11.7232 3.1704 11.0653C2.78488 10.9691 2.4494 10.8641 2.21091 10.7518C0.94552 10.1563 0.500269 9.4912 0.5 8.99359V5.77371C0.720785 5.90491 0.951155 6.02624 1.18742 6.13743C2.78124 6.88753 4.90898 7.32256 7.20011 7.32256C9.49124 7.32256 11.619 6.88753 13.2128 6.13743C13.4491 6.02624 13.6794 5.90491 13.9002 5.77371ZM10.5 17.6108V13.9316C10.5 13.6954 10.5367 13.4716 10.6037 13.2598C9.54891 13.4801 8.3968 13.5988 7.20011 13.5988C4.90898 13.5988 2.78124 13.1637 1.18742 12.4136C0.951155 12.3024 0.720785 12.1811 0.5 12.0499V15.2705C0.500245 15.7681 0.945485 16.4332 2.21091 17.0288C3.43271 17.6038 5.19473 17.9884 7.20011 17.9884C8.41048 17.9884 9.5322 17.8483 10.5 17.6108ZM10.5 19.4139C9.47361 19.6205 8.35771 19.7316 7.20011 19.7316C4.90898 19.7316 2.78124 19.2966 1.18742 18.5465C0.951155 18.4353 0.720785 18.3139 0.5 18.1827V21.4026C0.500269 21.9002 0.94552 22.5653 2.21091 23.1609C2.82405 23.4494 4.07826 23.69 5.17571 23.8581C6.5176 24.0637 7.88262 24.0637 9.22451 23.8581C9.81934 23.767 10.4602 23.6546 11.0201 23.5248C10.7002 23.1053 10.5 22.6203 10.5 22.0684V19.4139Z"
            fill="#3856DD" />
        <g id="Subtract_2">
            <path
                d="M25.7869 22.0121V18.7923C25.5662 18.9235 25.3358 19.0448 25.0995 19.156C23.5057 19.9061 21.378 20.3411 19.0868 20.3411C16.7957 20.3411 14.668 19.9061 13.0741 19.156C12.8379 19.0448 12.6075 18.9235 12.3867 18.7923V22.0121C12.387 22.5098 12.8322 23.1749 14.0976 23.7704C15.3194 24.3454 17.0814 24.73 19.0868 24.73C21.0922 24.73 22.8542 24.3454 24.076 23.7704C25.3414 23.1749 25.7867 22.5098 25.7869 22.0121Z"
                fill="#3856DD" />
            <path
                d="M12.3867 15.7357C12.3872 15.2381 12.8325 14.5736 14.0976 13.9782C15.3194 13.4031 17.0814 13.0186 19.0868 13.0186C21.0922 13.0186 22.8542 13.4031 24.076 13.9782C25.3418 14.5739 25.7869 15.2387 25.7869 15.7364C25.7869 16.2341 25.3418 16.8989 24.076 17.4947C22.8542 18.0697 21.0922 18.4543 19.0868 18.4543C17.0814 18.4543 15.3194 18.0697 14.0976 17.4947C12.8319 16.8989 12.3867 16.2333 12.3867 15.7357Z"
                fill="#3856DD" />
        </g>
        <g id="Group 1116605308">
            <path id="Path" d="M20.0032 4.24512V10.4977" stroke="#3856DD" stroke-width="1.6"
                stroke-linecap="round" stroke-linejoin="round" />
            <path id="Path_2" d="M22.505 6.74616L20.004 4.24512L17.5029 6.74616" stroke="#3856DD"
                stroke-width="1.6" stroke-linecap="round" stroke-linejoin="round" />
        </g>
    </g>
</svg>
