<svg width="30" height="30" viewBox="0 0 30 30" fill="none" xmlns="http://www.w3.org/2000/svg">
<g id="Group">
<g id="Group_2">
<path id="Path" fill-rule="evenodd" clip-rule="evenodd" d="M23.6213 7.69184L24.7025 7.92809C25.6925 8.14434 26.2825 9.16559 25.975 10.1318L25.6388 11.1868C25.435 11.8281 25.6225 12.5281 26.12 12.9818L26.9388 13.7268C27.6875 14.4093 27.6875 15.5893 26.9388 16.2718L26.12 17.0168C25.6225 17.4693 25.435 18.1706 25.6388 18.8118L25.975 19.8668C26.2825 20.8331 25.6925 21.8543 24.7025 22.0706L23.6213 22.3068C22.9638 22.4506 22.4513 22.9631 22.3075 23.6206L22.0713 24.7018C21.855 25.6918 20.8338 26.2818 19.8675 25.9743L18.8125 25.6381C18.1713 25.4343 17.4713 25.6218 17.0175 26.1193L16.2725 26.9381C15.59 27.6868 14.41 27.6868 13.7275 26.9381L12.9825 26.1193C12.53 25.6218 11.8288 25.4343 11.1875 25.6381L10.1325 25.9743C9.16629 26.2818 8.14504 25.6918 7.92879 24.7018L7.69254 23.6206C7.54879 22.9631 7.03629 22.4506 6.37879 22.3068L5.29754 22.0706C4.30754 21.8543 3.71754 20.8331 4.02504 19.8668L4.36129 18.8118C4.56504 18.1706 4.37754 17.4706 3.88004 17.0168L3.06254 16.2718C2.31379 15.5893 2.31379 14.4093 3.06254 13.7268L3.88129 12.9818C4.37879 12.5293 4.56629 11.8281 4.36254 11.1868L4.02504 10.1318C3.71754 9.16559 4.30754 8.14434 5.29754 7.92809L6.37879 7.69184C7.03629 7.54809 7.54879 7.03559 7.69254 6.37809L7.92879 5.29684C8.14504 4.30684 9.16629 3.71684 10.1325 4.02434L11.1875 4.36059C11.8288 4.56434 12.5288 4.37684 12.9825 3.87934L13.7275 3.06059C14.41 2.31184 15.59 2.31184 16.2725 3.06059L17.0175 3.87934C17.47 4.37684 18.1713 4.56434 18.8125 4.36059L19.8675 4.02434C20.8338 3.71684 21.855 4.30684 22.0713 5.29684L22.3075 6.37809C22.4513 7.03559 22.9638 7.54809 23.6213 7.69184Z" stroke="#071A34" stroke-width="1.60714" stroke-linecap="round" stroke-linejoin="round"/>
<path id="Path_2" d="M11.249 18.749L18.749 11.249" stroke="#3856DD" stroke-width="1.60714" stroke-linecap="round" stroke-linejoin="round"/>
<path id="Path_3" d="M11.5603 11.249C11.3878 11.249 11.2478 11.389 11.249 11.5615C11.249 11.734 11.389 11.874 11.5615 11.874C11.734 11.874 11.874 11.734 11.874 11.5615C11.874 11.389 11.734 11.249 11.5603 11.249" stroke="#3856DD" stroke-width="1.60714" stroke-linecap="round" stroke-linejoin="round"/>
<path id="Path_4" d="M18.4353 18.124C18.2628 18.124 18.1228 18.264 18.124 18.4365C18.124 18.609 18.264 18.749 18.4365 18.749C18.609 18.749 18.749 18.609 18.749 18.4365C18.749 18.264 18.609 18.124 18.4353 18.124" stroke="#3856DD" stroke-width="1.60714" stroke-linecap="round" stroke-linejoin="round"/>
</g>
</g>
</svg>
