<svg width="48" height="48" viewBox="0 0 48 48" fill="none" xmlns="http://www.w3.org/2000/svg">
<rect width="48" height="47.9999" rx="7.92" fill="#D4EAF6"/>
<path fill-rule="evenodd" clip-rule="evenodd" d="M14.9965 28.002H33.004C33.5565 28.002 34.0044 28.4499 34.0044 29.0024V30.0028C34.0044 31.1078 33.1086 32.0036 32.0036 32.0036H15.9969C14.8919 32.0036 13.9961 31.1078 13.9961 30.0028V29.0024C13.9961 28.4499 14.444 28.002 14.9965 28.002Z" stroke="#2894D1" stroke-width="1.5" stroke-linecap="round" stroke-linejoin="round"/>
<path fill-rule="evenodd" clip-rule="evenodd" d="M24.0003 21.999H15.1077C14.5251 22.028 14.0284 21.581 13.9961 20.9986C13.9961 17.6835 18.4751 14.9961 24.0003 14.9961C29.5254 14.9961 34.0044 17.6835 34.0044 20.9986C33.9721 21.581 33.4755 22.028 32.8929 21.999H24.0003Z" stroke="#2894D1" stroke-width="1.5" stroke-linecap="round" stroke-linejoin="round"/>
<path d="M14.4961 25.0002C15.7139 24.5 17.0798 24.5 18.2977 25.0002C19.5155 25.5004 20.8814 25.5004 22.0993 25.0002C23.3171 24.5 24.683 24.5 25.9008 25.0002C27.1187 25.5004 28.4846 25.5004 29.7024 25.0002C30.9203 24.5 32.2862 24.5 33.504 25.0002" stroke="#2894D1" stroke-width="1.5" stroke-linecap="round" stroke-linejoin="round"/>
</svg>
