<svg width="24" height="24" viewBox="0 0 24 24" fill="none" xmlns="http://www.w3.org/2000/svg">
<path d="M7.82707 2.93947C10.5844 2.47721 13.4141 2.47721 16.1714 2.93947C17.2707 3.12375 18.1463 3.96756 18.3668 5.0623C18.999 9.50098 18.999 14.501 18.5151 18.9506L18.2936 20.1859C18.1077 21.2227 16.8437 21.6372 16.08 20.9116L12.1714 17.1985C12.0749 17.1069 11.9236 17.1069 11.8271 17.1985L7.91853 20.9116C7.15483 21.6372 5.89079 21.2227 5.70489 20.1859L5.48341 18.9506C4.99878 14.001 4.99904 9.50098 5.63174 5.0623C5.85225 3.96756 6.72785 3.12375 7.82707 2.93947Z" fill="#071A34"/>
</svg>
