<svg width="209" height="192" viewBox="0 0 209 192" fill="none" xmlns="http://www.w3.org/2000/svg">
<path d="M44.1388 79.4318C24.6299 79.4318 8.81474 63.6167 8.81474 44.1078C8.81474 24.5988 24.6299 8.78369 44.1388 8.78369C63.6478 8.78369 79.4629 24.5988 79.4629 44.1078C79.4629 63.6167 63.6478 79.4318 44.1388 79.4318Z" stroke="#06B979" stroke-width="0.231481" stroke-miterlimit="10"/>
<path d="M49.6477 84.9417C42.3561 88.5065 44.4857 95.3352 44.4857 95.3352C44.4857 95.3352 48.5598 101.215 55.8746 97.6501C63.1663 94.0852 70.9209 82.4186 70.9209 82.4186C70.9209 82.4186 56.9394 81.3769 49.6477 84.9417Z" fill="#06B979"/>
<path d="M49.6477 84.9417C42.3561 88.5065 44.4857 95.3352 44.4857 95.3352L70.9209 82.4186C70.9209 82.4186 56.9394 81.3769 49.6477 84.9417Z" fill="#E2ECE8"/>
<path d="M38.0279 123.159C45.3196 126.724 43.1899 133.553 43.1899 133.553C43.1899 133.553 39.1159 139.432 31.801 135.868C24.5094 132.303 16.7547 120.636 16.7547 120.636C16.7547 120.636 30.7131 119.594 38.0279 123.159Z" fill="#06B979"/>
<path d="M38.0289 123.159C45.3205 126.724 43.1909 133.553 43.1909 133.553L16.7557 120.636C16.7557 120.636 30.7141 119.594 38.0289 123.159Z" fill="#E2ECE8"/>
<path d="M90.2973 92.6495L96.9409 94.7792L97.9131 94.3162L99.7881 92.4644L99.6029 89.4319L95.9223 89.3394L90.2973 92.6495Z" fill="#FCD2B1"/>
<path d="M112.426 53.7607C112.426 53.7607 114.695 79.9644 95.9449 89.3394C96.7088 90.2422 99.8569 91.6774 99.8569 91.6774C99.8569 91.6774 118.213 80.5431 117.565 68.182C116.917 55.8209 112.426 53.7607 112.426 53.7607Z" fill="#3856DD"/>
<path d="M147.958 173.228C147.958 173.228 145.504 184.571 143.699 189.687C143.49 190.288 144.254 190.775 144.694 190.335C147.727 187.349 151.94 181.307 153.328 179.918C155.065 178.182 157.727 174.941 157.727 174.941L151.361 169.339L147.171 171.446L147.958 173.228Z" fill="#071A34"/>
<path d="M125.18 181.561C125.18 181.561 115.064 187.21 110.018 189.27C109.416 189.524 109.555 190.404 110.203 190.45C114.439 190.751 121.777 189.918 123.722 190.034C126.152 190.196 130.365 190.034 130.365 190.034V181.561L126.013 179.802L125.18 181.561Z" fill="#071A34"/>
<path d="M114.925 83.4595C114.925 83.4595 115.898 134.084 116.453 135.219C117.009 136.33 125.18 181.584 125.18 181.584H130.365C130.365 181.584 129.439 134.293 127.402 132.534C127.402 128.367 128.814 83.8761 124.856 80.7049C119.069 80.3576 114.925 83.4595 114.925 83.4595Z" fill="#182E4C"/>
<path d="M132.472 78.5752C139.949 84.0845 141.454 109.825 133.838 129.709C138.815 138.645 153.699 174.084 153.699 174.084L149.301 176.723C149.301 176.723 118.954 134.987 120.111 130.682C121.269 126.376 119.07 80.3344 119.07 80.3344L132.472 78.5752Z" fill="#071A34"/>
<path d="M111.015 47.9508C110.853 48.5758 110.644 49.2008 110.39 49.8027C108.769 53.6452 106.547 61.5851 106.709 62.9045C106.894 64.3397 111.964 69.2239 113.306 72.9508C114.649 76.6777 114.88 83.4601 114.88 83.4601L132.427 78.5758C132.427 78.5758 127.542 66.5388 127.357 61.099C127.172 55.6591 125.297 44.4091 118.376 43.2749C113.098 42.3953 111.478 46.1915 111.015 47.9508Z" fill="#3856DD"/>
<path d="M105.667 24.9878C105.343 24.1776 105.459 23.2516 105.968 22.5341C108.607 18.9461 113.352 16.9322 117.75 17.7192C122.635 18.5989 126.732 22.8118 127.473 27.7192C127.75 29.6174 127.588 31.5618 127.982 33.4368C128.445 35.6359 129.718 37.6729 131.5 39.0387C133.723 40.7516 136.593 41.3998 139.07 42.7424C141.57 44.1081 143.63 46.1452 145.389 48.3905C147.148 50.6359 148.676 53.1591 149.162 55.9831C149.648 58.8072 148.954 61.9322 146.848 63.8535C145.505 65.0803 143.769 65.7053 142.056 66.2841C138.63 67.4415 135.042 68.4831 131.454 68.0896C127.866 67.6961 124.232 65.5665 123.121 62.1174C121.57 57.2563 125.389 52.1405 124.695 47.0942C124.209 43.6683 121.709 40.8442 118.931 38.784C116.153 36.7239 113.005 35.1498 110.366 32.9276C108.398 31.2841 106.523 27.0711 105.667 24.9878Z" fill="#2C2A43"/>
<path d="M110.413 39.5247C111.293 41.3302 112.103 46.0756 111.339 48.0895C110.644 50.0802 110.899 50.4043 110.899 50.4043L118.607 44.0849L116.825 35.4043L110.413 39.5247Z" fill="#FCD2B1"/>
<path d="M104.14 32.2332C104.14 36.7008 105.297 41.261 109.001 41.261C112.704 41.261 117.565 36.7008 117.565 32.2332C117.565 27.7656 114.556 24.1313 110.852 24.1313C107.149 24.1313 104.14 27.7656 104.14 32.2332Z" fill="#FFE3CA"/>
<path d="M104.533 23.3209C103.213 23.2051 102.31 24.6172 102.959 25.7514C104.232 28.0431 106.5 30.3348 111.778 29.6866C114.185 29.3857 118.028 29.6866 118.259 31.307L120.111 26.9088C120.111 26.9088 119.648 24.1311 119.185 24.1311H114.139L104.533 23.3209Z" fill="#2C2A43"/>
<path d="M114.556 29.2237C115.25 30.6126 115.621 33.0894 116.547 33.5524C117.704 32.8811 119.139 29.3857 119.047 29.4088C118.954 29.432 117.797 28.7375 117.565 28.7375C117.334 28.7375 114.556 29.2237 114.556 29.2237Z" fill="#2C2A43"/>
<path d="M116.291 35.7741C115.638 35.4806 115.491 34.3919 115.963 33.3424C116.435 32.2929 117.346 31.6801 117.999 31.9735C118.652 32.267 118.799 33.3557 118.328 34.4051C117.856 35.4546 116.944 36.0675 116.291 35.7741Z" fill="#FFE3CA"/>
<path d="M116.893 37.2326C116.228 37.2326 115.689 36.6937 115.689 36.0289C115.689 35.3641 116.228 34.8252 116.893 34.8252C117.558 34.8252 118.097 35.3641 118.097 36.0289C118.097 36.6937 117.558 37.2326 116.893 37.2326Z" fill="#F99C07"/>
<path d="M97.9362 119.224L112.311 106.516C112.82 106.076 112.867 105.289 112.427 104.779L103.515 93.784C103.075 93.2748 102.288 93.2285 101.779 93.6683L86.501 107.164C85.9917 107.603 85.9454 108.391 86.3852 108.9L96.2001 119.108C96.663 119.617 97.4269 119.664 97.9362 119.224Z" fill="#D3D3D3"/>
<path d="M83.7916 123.321L96.9397 117.233L93.537 113.298L82.7036 120.497L82.5416 120.613L83.7916 123.321ZM89.0694 94.4091C87.449 95.798 86.9166 98.3675 87.5879 101.655L88.7916 107.604L102.194 96.0064L96.2684 93.9462C93.2129 92.8582 90.6666 93.0202 89.0694 94.4091ZM88.3055 93.5295C90.1573 91.9323 93.074 91.5851 96.662 92.8351L104.463 95.5665L88.0277 109.756L86.4305 101.863C85.6666 98.0434 86.4305 95.1499 88.3055 93.5295Z" fill="#D3D3D3"/>
<path d="M82.6881 120.651L83.7967 123.053C84.0898 122.408 84.0571 121.92 83.8585 121.547C83.6425 121.141 83.2171 120.843 82.7195 120.629L82.6881 120.651Z" fill="#94A3B8" stroke="#94A3B8" stroke-width="0.231481"/>
<path d="M122.333 49.5945C122.657 60.1038 118.398 87.0482 110.412 97.6732C109.046 96.9556 107.565 96.1454 107.565 96.1454C107.565 96.1454 117.75 72.7195 114.486 53.0436C114.139 50.613 114.486 48.8769 115.227 47.6732C117.171 44.4093 122.218 45.8214 122.333 49.5945Z" fill="#7388E4"/>
<path d="M110.412 97.6957C110.412 97.6957 108.12 102.441 107.565 102.95C107.032 103.46 103.097 105.566 101.986 105.983C100.875 106.376 103.491 103.992 103.491 103.992C103.491 103.992 101.454 105.288 100.505 105.798C100.366 105.867 100.25 105.705 100.343 105.589C101.06 104.733 102.82 103.344 102.82 103.344C102.82 103.344 100.065 104.987 98.838 105.636C98.6991 105.705 98.5834 105.543 98.676 105.427C99.5556 104.594 101.546 103.043 101.894 102.858C100.435 103.483 99.3936 104.085 98.7454 104.386C98.6529 104.432 98.5834 104.316 98.6528 104.247C99.926 103.089 105.343 99.2467 105.62 99.1772C106.732 98.9226 107.773 96.2837 107.773 96.2837L110.412 97.6957Z" fill="#FCD2B1"/>
<path d="M96.9394 94.7792L97.9116 94.3162L98.0273 94.1542C98.0273 94.1542 95.4116 91.4922 94.7403 91.1912C94.3005 91.006 92.4486 91.7236 91.2681 92.2097C90.9209 92.3486 90.944 92.8579 91.3144 92.9736L96.9394 94.7792Z" fill="#FFE4D2"/>
<path d="M44.8105 63.2974H43.468V190.52H44.8105V63.2974Z" fill="#06B979"/>
<path d="M69.1851 11.9553C72.0323 11.9553 74.324 14.2701 74.324 17.0942C74.324 14.247 76.6388 11.9553 79.4629 11.9553C76.6157 11.9553 74.324 9.64048 74.324 6.81641C74.3471 9.64048 72.0323 11.9553 69.1851 11.9553Z" fill="#06B979"/>
<path d="M66.7314 11.9553C70.9444 11.9553 74.3471 15.3581 74.3471 19.5711C74.3471 15.3581 77.7499 11.9553 81.9629 11.9553C77.7499 11.9553 74.3471 8.55256 74.3471 4.3396C74.3471 8.55256 70.9212 11.9553 66.7314 11.9553Z" stroke="#06B979" stroke-width="0.231481" stroke-miterlimit="10"/>
<path d="M1.80094 53.7603C3.44446 53.7603 4.78704 55.1029 4.78704 56.7233C4.78704 55.0798 6.12963 53.7603 7.75 53.7603C6.10648 53.7603 4.78704 52.4177 4.78704 50.7974C4.78704 52.4177 3.44446 53.7603 1.80094 53.7603Z" fill="#06B979"/>
<path d="M0.388274 53.7607C2.81883 53.7607 4.78642 55.7283 4.78642 58.1588C4.78642 55.7283 6.75401 53.7607 9.18457 53.7607C6.75401 53.7607 4.78642 51.7931 4.78642 49.3625C4.78642 51.7931 2.81883 53.7607 0.388274 53.7607Z" stroke="#06B979" stroke-width="0.173611" stroke-miterlimit="10"/>
<path d="M80.7596 121.909L48.6068 137.025L80.7596 121.909ZM82.542 124.872L61.7087 164.64L82.542 124.872ZM76.0142 128.761L48.6068 164.64L76.0142 128.761ZM69.6716 131.377L47.8661 147.858L69.6716 131.377Z" fill="#94A3B8"/>
<path d="M80.7596 121.909L48.6068 137.025M82.542 124.872L61.7087 164.64M76.0142 128.761L48.6068 164.64M69.6716 131.377L47.8661 147.858" stroke="#94A3B8" stroke-width="0.231481" stroke-miterlimit="10" stroke-dasharray="2.78 3.24"/>
<path d="M49.3242 67.6035H39.0696V72.7193C39.0696 75.5433 41.3613 77.835 44.1853 77.835C47.0094 77.835 49.3011 75.5433 49.3011 72.7193V67.6035H49.3242Z" fill="#029963"/>
<path d="M44.1387 72.8579C28.2605 72.8579 15.3887 59.9861 15.3887 44.1079C15.3887 28.2297 28.2605 15.3579 44.1387 15.3579C60.0169 15.3579 72.8887 28.2297 72.8887 44.1079C72.8887 59.9861 60.0169 72.8579 44.1387 72.8579Z" fill="#06B979"/>
<path d="M44.1388 65.6823C32.2238 65.6823 22.5647 56.0233 22.5647 44.1082C22.5647 32.1932 32.2238 22.5342 44.1388 22.5342C56.0538 22.5342 65.7129 32.1932 65.7129 44.1082C65.7129 56.0233 56.0538 65.6823 44.1388 65.6823Z" stroke="#F7F7F7" stroke-width="0.231481" stroke-miterlimit="10"/>
<path d="M45.2278 34.9646C47.1722 35.335 48.3297 36.7933 48.3297 39.1081V39.4785L45.6445 39.7331V39.3165C45.6445 38.0202 45.1815 37.4183 44.163 37.4183C43.3297 37.4183 42.7509 37.9276 42.7509 38.9692V39.3165C42.7509 40.335 43.3065 41.1915 45.1121 42.835C47.5889 45.1266 48.4454 46.6081 48.4454 48.5989V49.0387C48.4454 51.3535 47.1954 52.7655 45.2278 53.1128V55.0341H43.0287V53.1128C41.0843 52.6961 39.8574 51.2378 39.8574 48.9692V47.9276L42.5426 47.6729V48.7841C42.5426 50.0804 43.075 50.6822 44.163 50.6822C44.9732 50.6822 45.6908 50.1729 45.6908 49.1313V48.7378C45.6908 47.7192 45.1352 46.8628 43.3296 45.2192C40.8528 42.9276 39.9963 41.4461 39.9963 39.4554V39.0618C39.9963 36.7702 41.1306 35.3581 43.0519 34.9878V33.3442H45.251V34.9646H45.2278Z" fill="#F7F7F7"/>
</svg>
