<svg width="48" height="48" viewBox="0 0 48 48" fill="none" xmlns="http://www.w3.org/2000/svg">
<path d="M18 31.8H7.8C5.7 31.8 4 30.1 4 28V9.8C4 7.7 5.7 6 7.8 6H38.2C40.3 6 42 7.7 42 9.8V22" stroke="#3856DD" stroke-width="2.5" stroke-linecap="round" stroke-linejoin="round"/>
<path d="M44.978 35L41.978 32L38.978 35" stroke="#3856DD" stroke-width="2.5" stroke-linecap="round" stroke-linejoin="round"/>
<path d="M41.978 32V38.802C41.978 40.562 40.538 42 38.78 42H34" stroke="#3856DD" stroke-width="2.5" stroke-linecap="round" stroke-linejoin="round"/>
<path d="M25.022 35L28.022 38L31.022 35" stroke="#3856DD" stroke-width="2.5" stroke-linecap="round" stroke-linejoin="round"/>
<path d="M28.022 38V31.198C28.022 29.438 29.462 28 31.22 28H36" stroke="#3856DD" stroke-width="2.5" stroke-linecap="round" stroke-linejoin="round"/>
<path d="M26.358 15.942C28.212 17.796 28.212 20.804 26.358 22.66C24.504 24.514 21.496 24.514 19.64 22.66C17.786 20.806 17.786 17.798 19.64 15.942C21.496 14.086 24.504 14.086 26.358 15.942" stroke="#3856DD" stroke-width="2.5" stroke-linecap="round" stroke-linejoin="round"/>
<path d="M12 26H10" stroke="#3856DD" stroke-width="2.5" stroke-linecap="round" stroke-linejoin="round"/>
<path d="M36 12H34" stroke="#3856DD" stroke-width="2.5" stroke-linecap="round" stroke-linejoin="round"/>
</svg>
